<svg width="29" height="41" viewBox="0 0 29 41" fill="none" xmlns="http://www.w3.org/2000/svg">
<path d="M28.736 11.5911C28.5951 11.4304 28.392 11.3384 28.1783 11.3384H21.2825C21.0223 11.3384 20.781 11.4749 20.6472 11.6977C20.5131 11.9206 20.5057 12.1976 20.6275 12.4276C20.7186 12.5992 20.763 12.7651 20.763 12.9337C20.763 14.1963 18.0673 15.6079 14.4599 15.6079C10.8525 15.6079 8.15681 14.1963 8.15681 12.9337C8.15681 12.7649 8.20096 12.5992 8.29227 12.4276C8.41429 12.1976 8.40667 11.9206 8.27261 11.6977C8.13855 11.4749 7.89752 11.3384 7.63722 11.3384H0.741506C0.527771 11.3384 0.324673 11.4304 0.183788 11.5911C0.0429036 11.7515 -0.0215181 11.9648 0.00637783 12.1765L3.71413 40.3548C3.7627 40.7239 4.07698 40.9996 4.44906 40.9996H24.4705C24.8428 40.9996 25.1571 40.7237 25.2054 40.3548L28.9132 12.1765C28.9413 11.9648 28.8769 11.7515 28.736 11.5911ZM23.8205 39.5165H5.09969L1.58721 12.8213H6.67652C6.67471 12.8587 6.67391 12.896 6.67391 12.9335C6.67391 15.3037 10.0214 17.0908 14.4601 17.0908C18.8988 17.0908 22.2463 15.3037 22.2463 12.9335C22.2463 12.8958 22.2455 12.8585 22.2437 12.8213H27.333L23.8205 39.5165Z" fill="black"/>
<path d="M9.55239 12.725C9.65856 13.1204 10.0656 13.355 10.4605 13.2492C10.8563 13.1431 11.0909 12.7369 10.9847 12.3411L8.63122 3.5573L10.7341 2.99396L12.7215 12.8019C12.7927 13.1535 13.102 13.3961 13.4474 13.3961C13.4962 13.3961 13.5455 13.3915 13.5955 13.3813C13.9967 13.3002 14.2564 12.9089 14.1747 12.5073L12.0311 1.92609C11.9906 1.7256 11.869 1.551 11.6948 1.44303C11.5218 1.33506 11.3102 1.30395 11.1126 1.35713L7.53124 2.31663C7.34119 2.36741 7.17923 2.49183 7.08089 2.66202C6.98275 2.8322 6.95606 3.0345 7.00704 3.22455L9.55239 12.725Z" fill="black"/>
<path d="M15.9141 12.4961C15.9536 12.8772 16.2755 13.1608 16.651 13.1608C16.6763 13.1608 16.7024 13.1596 16.7285 13.1567C17.1359 13.1144 17.4317 12.7498 17.3894 12.3426L16.3669 2.50091L18.2058 3.00062L18.9829 11.1972C19.0216 11.6048 19.3848 11.9032 19.791 11.8657C20.1986 11.827 20.4981 11.4653 20.4595 11.0575L19.6339 2.34999C19.6046 2.04253 19.388 1.78524 19.09 1.70437L15.7118 0.786209C15.4764 0.722188 15.2233 0.778181 15.0373 0.936726C14.8508 1.09487 14.7545 1.3351 14.7798 1.57833L15.9141 12.4961Z" fill="black"/>
<path d="M22.1176 10.5488C22.5354 10.5771 22.8784 10.2628 22.9029 9.85402L23.408 1.59723L24.744 1.80173L24.3679 9.85764C24.3487 10.2668 24.6652 10.614 25.074 10.6333C25.0858 10.6337 25.0975 10.6341 25.1095 10.6341C25.503 10.6341 25.8312 10.3244 25.8496 9.92728L26.257 1.20488C26.2747 0.825776 26.0036 0.494437 25.6285 0.43724L22.8301 0.00856591C22.6237 -0.0229424 22.4144 0.0332508 22.2523 0.164301C22.0901 0.294951 21.9906 0.488416 21.9779 0.69613L21.4232 9.76351C21.3977 10.1723 21.7088 10.5239 22.1176 10.5488Z" fill="black"/>
<path d="M1.7598 10.5022C1.83044 10.8548 2.13991 11.0982 2.4861 11.0982C2.53426 11.0982 2.58343 11.0936 2.6324 11.0838C3.03398 11.0033 3.29428 10.6127 3.214 10.2112L1.77104 3.0098L2.86781 2.55062L5.70276 10.4737C5.84063 10.8596 6.26509 11.0603 6.65062 10.922C7.03615 10.7841 7.23684 10.3597 7.09896 9.97415L4.00071 1.31497C3.93227 1.12352 3.78817 0.968383 3.60173 0.8861C3.41589 0.804218 3.20417 0.802412 3.01632 0.880681L0.638541 1.8761C0.313021 2.01217 0.128386 2.35957 0.197825 2.70576L1.7598 10.5022Z" fill="black"/>
<path d="M14.4601 21.7197C12.2111 21.7197 10.3817 23.5492 10.3817 25.7982C10.3817 28.0471 12.2111 29.8766 14.4601 29.8766C16.709 29.8766 18.5385 28.0471 18.5385 25.7982C18.5385 23.5492 16.7088 21.7197 14.4601 21.7197ZM14.4601 28.3937C13.0292 28.3937 11.8648 27.2293 11.8648 25.7984C11.8648 24.3674 13.0292 23.203 14.4601 23.203C15.891 23.203 17.0554 24.3674 17.0554 25.7984C17.0554 27.2291 15.891 28.3937 14.4601 28.3937Z" fill="black"/>
</svg>
