<?xml version="1.0"?>
<svg version="1.1" id="圖層_1" xmlns="http://www.w3.org/2000/svg" x="0" y="0" viewBox="0 0 100 100" xml:space="preserve"><path d="M82.9 64H19.3c-1.5 0-2.6-1.2-2.6-2.6v-5.1c0-1.5 1.2-2.6 2.6-2.6h63.6c1.5 0 2.6 1.2 2.6 2.6v5.1c.1 1.5-1.1 2.6-2.6 2.6z" fill="#4a3826"/><path d="M62.1 19.6h-22C26.3 19.6 15 30.8 15 44.7c0 1.5 1.2 2.7 2.7 2.7h66.8c1.5 0 2.7-1.2 2.7-2.7 0-13.9-11.2-25.1-25.1-25.1z" fill="#f7b16a"/><path d="M75.3 80.4H27c-5.7 0-10.3-4.6-10.3-10.3v-.3c0-.9.7-1.6 1.6-1.6h65.6c.9 0 1.6.7 1.6 1.6v.3c.1 5.7-4.6 10.3-10.2 10.3z" fill="#f7b16a"/><path d="M40.9 36.6c-.6-1.5.1-3.3.8-3.5.6-.3 2.5.4 3.1 1.9.6 1.5.3 3.1-.8 3.5s-2.4-.4-3.1-1.9z" fill="#f3e5c7"/><path d="M50.9 41c-.6-1.5.1-3.3.8-3.5s2.5.4 3.1 1.9c.6 1.5.3 3.1-.8 3.5s-2.4-.4-3.1-1.9z" fill="#f3e5c7"/><path d="M62.7 33.3c-.8 1.3-2.6 1.7-3.2 1.3-.6-.4-1-2.1-.2-3.5s2.3-1.9 3.2-1.3c.9.6 1 2.1.2 3.5z" fill="#f3e5c7"/><path d="M72.2 26.9c1.4.8 1.9 2.7 1.6 3.3-.3.6-2.2 1.2-3.7.4-1.4-.8-2.1-2.3-1.6-3.3.6-1 2.3-1.2 3.7-.4z" fill="#f3e5c7"/><path d="M24.9 39c1.4 1.1 1.5 3.2 1.1 3.7-.5.6-2.5.9-3.9-.2s-1.8-2.8-1.1-3.7c.8-1 2.5-.9 3.9.2z" fill="#f3e5c7"/><path d="M32.6 30.5c.5 1.6-.6 3.3-1.3 3.5-.7.2-2.5-.7-2.9-2.3-.5-1.6.1-3.2 1.3-3.5 1.1-.3 2.4.7 2.9 2.3z" fill="#f3e5c7"/><path d="M44.1 26.9c-.5 1.6-2.3 2.4-3 2.1-.7-.2-1.6-2-1-3.5.5-1.6 1.9-2.5 3-2.1s1.6 1.9 1 3.5z" fill="#f3e5c7"/><path d="M77.6 42c-1.5-.3-2.5-1.8-2.4-2.5.1-.7 1.6-1.7 3.1-1.4 1.5.3 2.6 1.4 2.4 2.5-.1 1-1.5 1.7-3.1 1.4z" fill="#f3e5c7"/><path fill="#e15b64" d="M19.5 47.4h63.3v5.5H19.5z"/><path d="M87.6 64.6c-.3-.3-.6-.4-1.1-.5-.7-.2-1.7-.1-2.5-.1H16.4c-.9 0-1.9.2-2.8.4-1.2.4-2.2 1.6-2.8 2.6-.1.3-1.3 3.8-.8 3.8 1.7.4 3.5-2 4.9-.9 1 .8.5 2.8 1.7 3.3 1.1.5 2-.8 2.6-1.8.6-1 1.8-2.1 2.7-1.4.4.4.5 1 .8 1.4.6 1.1 2.1 1.3 3.2.9.7-.3 1.9-2 2.4-2 .3 0 .5.2.7.4.2.2.4.4.7.4.4.1.7-.1 1.1-.2 1-.1 1.7 1.7 3.2 1.5 1.3-.2 2.4-.9 3.6-1.4 1.2-.5 2.8-.5 3.5.5.2.3.4.7.7 1 .6.4 1.4 0 1.9-.5s1-1.1 1.6-1.3c.9-.2 1.8.5 2.7.9.9.4 2.3.3 2.4-.7-.1.6.7.8 1.3.6.5-.2 1-.7 1.6-.5.5.1.7.6 1.2.9.9.4 1.8-.5 2.8-.6 1.6-.2 2.7 1.9 4.3 2.2 1.6.3 3-1.2 4.1-2.4 1.1-1.3 2.9-2.5 4.3-1.6 1.2.8 1.6 2.8 3 2.7.9 0 1.4-1 2.2-1.5.4-.2.8-.3 1.2-.3.2 0 .4.1.6.2.2.1.4.2.6.4.1.1.2.1.3.1.3.1.6-.1.8-.3.2-.2.4-.3.6-.4.5-.2 1-.3 1.5-.1.2.1.3.1.5.2.3.2.6.6 1 .6.6 0 .8-.8 1.2-1.2 1-.9 2.3.7 3.6 1 1.5.3 2.8-1.3 2.7-2.8.1-1.2-1-2.5-2.2-3.5z" fill="#abbd81"/><path d="M86.9 56.2L53.6 67c-1.6.6-3.4.6-5 0L15.4 56.2c-.7-.3-1.1-.9-1.1-1.6 0-.9.8-1.7 1.7-1.7h70.2c.9 0 1.7.8 1.7 1.7 0 .7-.4 1.3-1 1.6z" fill="#ffdc6c"/><path d="M87.6 64.6c-.3-.3-.6-.4-1.1-.5-.7-.2-1.7-.1-2.5-.1-1 0 1.5-1.2 1.5-2.6v-4.8l1.3-.4c.7-.3 1.1-.9 1.1-1.6 0-.9-.8-1.7-1.7-1.7h-3.5v-5.5h1.7c1.5 0 2.7-1.2 2.7-2.7 0-13.8-11.2-25.1-25.1-25.1h-9.6C63.8 19.6 73 30.8 73 44.7c0 1.5-1 2.7-2.2 2.7h-1.4v5.5h2.8c.8 0 1.4.8 1.4 1.7 0 .7-1.9 6.8-1.9 6.8 0 1.5-2.1 2.6-1.2 2.6.6 0 1.4-.1 2 .1.4.1.6.3.9.5 1 1 1.8 2.2 1.9 3.7.1 1.5-1 3.2-2.2 2.8-.5-.1-1-.5-1.4-.8-.1 5.6-3.8 10-8.4 10h12c5.6 0 10.1-4.5 10.3-10 .6.3 1.2.7 1.7.8 1.5.3 2.8-1.3 2.7-2.8-.1-1.4-1.2-2.7-2.4-3.7z" opacity=".2"/><metadata xmlns:d="https://loading.io/stock/"><d:name>hamburger</d:name><d:tags>hamburger,sandwich,cheeseburger</d:tags><d:license>by</d:license><d:slug>dr9hza</d:slug></metadata></svg>