<svg width="35" height="41" viewBox="0 0 35 41" fill="none" xmlns="http://www.w3.org/2000/svg">
<path d="M31.4056 27.8214H31.3735C31.002 20.7362 25.3173 15.0515 18.232 14.68V9.51784H27.0176C27.4223 9.51784 27.7498 9.1903 27.7498 8.78569V2.92863C27.7498 2.52401 27.4223 2.19647 27.0176 2.19647H18.232V0H16.7676V2.92863V8.78569V14.68C9.68246 15.0515 3.99779 20.7362 3.62627 27.8214H3.59417C1.97688 27.8214 0.660583 29.1347 0.660583 30.75C0.660583 32.3653 1.97688 33.6786 3.59417 33.6786H4.32137V40.2678C4.32137 40.6725 4.64891 41 5.05353 41H29.9463C30.3509 41 30.6784 40.6725 30.6784 40.2678V33.6786H31.4056C33.0229 33.6786 34.3392 32.3653 34.3392 30.75C34.3394 29.1347 33.0231 27.8214 31.4056 27.8214ZM18.2324 3.66079H26.2859V8.05353H18.2324V3.66079ZM17.5002 16.1071C24.1174 16.1071 29.5448 21.2977 29.9251 27.8214H5.07512C5.45537 21.2977 10.8828 16.1071 17.5002 16.1071ZM29.2141 39.5355H5.78568V33.6784H29.2141V39.5355ZM31.4056 32.2141H29.9463H5.05353H3.59417C2.78414 32.2141 2.1249 31.5571 2.1249 30.7498C2.1249 29.9425 2.78414 29.2855 3.59417 29.2855H4.32137H30.6784H31.4056C32.2157 29.2855 32.8749 29.9425 32.8749 30.7498C32.8751 31.5571 32.2159 32.2141 31.4056 32.2141Z" fill="black"/>
</svg>
