<svg width="22" height="41" viewBox="0 0 22 41" fill="none" xmlns="http://www.w3.org/2000/svg">
<path d="M20.9446 21.5117H20.9137C21.3716 20.9065 21.6537 20.1615 21.6537 19.3457V18.5745C21.6537 17.4706 21.2234 16.5134 20.442 15.8805C20.1365 15.6332 19.793 15.4513 19.4231 15.3326C19.6225 13.9878 19.8509 11.1649 18.5194 9.90826C18.2778 9.6797 18.0262 9.5287 17.7677 9.42517C18.2184 4.43491 15.7295 0.383865 13.6995 0.0275573C12.9103 -0.113481 11.9578 0.262361 11.6409 1.72549C11.3022 3.29098 10.2429 3.44823 8.24313 3.61036C7.0865 3.70491 5.77535 3.81137 4.62614 4.43022C3.80745 4.87072 3.2812 5.52063 3.06202 6.36081C2.74322 7.58308 3.18684 8.92587 3.57128 9.77288C2.86707 9.95065 2.26033 10.2415 1.80166 10.7C0.348298 12.1531 1.01872 14.5606 1.42914 15.6436C1.35002 15.7026 1.2711 15.7619 1.19648 15.828C0.425069 16.5117 0 17.4864 0 18.5747V19.3459C0 20.1619 0.282077 20.9067 0.739964 21.5119H0.721797C0.323294 21.5119 0 21.8348 0 22.2337C0 22.6326 0.323294 22.9555 0.721797 22.9555H2.26384L4.8293 40.3833C4.88145 40.7378 5.18521 41 5.54328 41H16.8316C17.1897 41 17.4935 40.7378 17.5456 40.3833L20.1111 22.9555H20.944C21.3425 22.9555 21.6658 22.6326 21.6658 22.2337C21.6664 21.8344 21.3431 21.5117 20.9446 21.5117ZM4.45893 6.72512C4.57457 6.28247 4.85333 5.94707 5.31082 5.70093C6.19358 5.22508 7.29493 5.13561 8.36014 5.04966C10.2872 4.89319 12.471 4.71621 13.0525 2.0314C13.1428 1.61336 13.2787 1.41958 13.4504 1.44927C14.5559 1.64344 16.7373 4.86017 16.3317 9.29468C15.8795 9.35856 15.413 9.48924 14.9366 9.62364C13.894 9.91763 12.7107 10.2489 11.2632 10.0706L10.3208 9.94928C8.50196 9.7133 6.65205 9.47596 5.07289 9.56035C4.72166 8.90458 4.21396 7.66492 4.45893 6.72512ZM2.82253 11.7205C3.9651 10.5793 7.24316 11.0051 10.1345 11.3808L11.0838 11.5027C12.8255 11.721 14.213 11.3278 15.3285 11.0127C16.5894 10.656 17.1061 10.5595 17.5284 10.9571C18.2588 11.6472 18.2129 13.73 17.9859 15.1941C17.8416 15.2091 17.6958 15.2308 17.5482 15.2622C17.5253 15.2679 15.2366 15.8416 13.6223 15.8416C10.6189 15.8416 4.15048 14.9802 4.07703 14.9712C3.6168 14.9147 3.16946 14.9417 2.74615 15.0384C2.43829 14.1937 1.99388 12.5491 2.82253 11.7205ZM6.16701 39.556L5.53898 35.2887L9.80628 39.556H6.16701ZM11.8476 39.5562L5.56301 33.2716C5.46436 33.173 5.34208 33.1214 5.21549 33.0919L4.66677 29.3641L14.8589 39.5562H11.8476ZM16.2974 38.9534L4.31437 26.9704L3.79202 23.4225C3.80355 23.4358 3.80784 23.4526 3.82054 23.4653L16.6838 36.3285L16.2974 38.9534ZM16.9457 34.5493L5.35165 22.9553H8.36288L17.1807 31.7731C17.2274 31.8198 17.2842 31.847 17.3389 31.8782L16.9457 34.5493ZM17.5941 30.1451L10.404 22.9551H13.4153L17.7689 27.3083C17.8341 27.3736 17.9103 27.4203 17.99 27.4552L17.5941 30.1451ZM18.2424 25.7407L15.4566 22.9553H18.0469H18.6524L18.2424 25.7407ZM20.2101 19.3457C20.2101 20.5397 19.2398 21.5117 18.0469 21.5117H3.60703C2.41406 21.5117 1.44379 20.5397 1.44379 19.3457V18.5745C1.44379 17.9056 1.69617 17.3141 2.15386 16.9082C2.54162 16.565 3.04405 16.3837 3.58789 16.3837C3.68868 16.3837 3.79085 16.3902 3.89379 16.4029C4.16298 16.4388 10.5226 17.2854 13.6223 17.2854C15.4175 17.2854 17.8015 16.6877 17.8748 16.6687C18.5141 16.5333 19.1015 16.6519 19.5332 17.0028C19.9698 17.3557 20.2101 17.914 20.2101 18.5745V19.3457Z" fill="black"/>
</svg>
